<svg xmlns="http://www.w3.org/2000/svg" viewBox="0 0 199.12 138.72"><defs><style>.cls-1{fill:#c2c853;}.cls-2{fill:#848dec;}.cls-3{fill:#222221;}.cls-4{fill:#faf9ea;}</style></defs><g id="Capa_2" data-name="Capa 2"><g id="OBJECTS"><path class="cls-1" d="M179.63,69.07c-3.58,8.76-9.43,15.77-16.64,21.74a99.26,99.26,0,0,1-32.24,17.59,97.12,97.12,0,0,1-28.59,5.11,95.92,95.92,0,0,1-29.31-3.75A103.52,103.52,0,0,1,42.69,95.71c-8.54-5.85-15.93-12.83-20.93-22-1.1-2-2.41-4-2.62-6.42l-.06.06c3.46,4.19,6.69,8.57,10.6,12.38C38.33,88.12,47.91,95.24,59,100.13a95.52,95.52,0,0,0,32.21,8.17,104,104,0,0,0,33.17-2.64c19.08-4.87,35-14.93,48.3-29.3,2.27-2.45,4.28-5.14,6.41-7.72Z"/><path class="cls-1" d="M175.14,47.93c-.9-.06-1.24-.84-1.74-1.35A117.58,117.58,0,0,0,135,20.47a107.46,107.46,0,0,0-19-6.55,71.34,71.34,0,0,0-36.55,1A127.46,127.46,0,0,0,39.5,34.62,96,96,0,0,0,23.69,49c-.38.44-.79.85-1.33,1.42-.27-.81.24-1.17.49-1.57C31.68,35,43.73,24.94,58.46,17.88A93.48,93.48,0,0,1,85.11,9.19,122.34,122.34,0,0,1,99.35,7.6c3.65-.12,7.34.59,11,1,18.2,2.24,34.28,9.57,48.7,20.65,6.43,5,11.6,11.14,16.19,17.81C175.36,47.28,175.54,47.52,175.14,47.93Z"/><path class="cls-1" d="M101.74,124.6a2.34,2.34,0,0,1-2.27,2.17,2.53,2.53,0,0,1-2-2.19,2.37,2.37,0,0,1,2.31-2.4A2.27,2.27,0,0,1,101.74,124.6Z"/><path class="cls-1" d="M188.41,69.17c1,0,2.4,1.37,2.32,2.21a2.51,2.51,0,0,1-2.3,1.89,1.91,1.91,0,0,1-2-1.82C186.48,70.49,187.62,69.16,188.41,69.17Z"/><path class="cls-1" d="M10.74,69.14c.81,0,1.9,1.23,1.94,2.26a1.81,1.81,0,0,1-1.85,1.87,2.44,2.44,0,0,1-2.32-1.85C8.4,70.58,9.75,69.19,10.74,69.14Z"/><path class="cls-1" d="M37.63,101.46a1.59,1.59,0,0,1-1.58,1.61,1.25,1.25,0,0,1-1.46-1.32A1.94,1.94,0,0,1,36,99.86C36.53,99.64,37.57,100.71,37.63,101.46Z"/><path class="cls-1" d="M185.47,59.92c.7,0,1.8.89,1.73,1.49a1.46,1.46,0,0,1-1.67,1.43c-.8,0-1.5-.3-1.6-1.22A1.9,1.9,0,0,1,185.47,59.92Z"/><path class="cls-1" d="M174.39,91.9a1.66,1.66,0,0,1-1.63-1.82c.06-.63.3-1.11,1.08-1.09,1.13,0,2.3.85,2.21,1.61A1.83,1.83,0,0,1,174.39,91.9Z"/><path class="cls-1" d="M162.93,99.86a2.07,2.07,0,0,1,1.74,2.06c-.15,1-.83,1.21-1.65,1.14a1.51,1.51,0,0,1-1.37-1.76A2,2,0,0,1,162.93,99.86Z"/><path class="cls-1" d="M78.32,122.35a1.64,1.64,0,0,1,1.49-1.57c.83-.08,1.33.58,1.41,1.41a1.47,1.47,0,0,1-1.45,1.64C78.85,123.84,78.43,123.32,78.32,122.35Z"/><path class="cls-1" d="M26.52,90.06A1.74,1.74,0,0,1,25,91.89c-.81.12-1.86-.65-1.78-1.37.12-1.15,1.09-1.33,2-1.51S26.32,89.51,26.52,90.06Z"/><path class="cls-1" d="M136.38,119.05c-.85,0-1.84-.86-1.72-1.57s.39-1.31,1.19-1.42,2.06,1,2,1.61C137.79,118.59,137,118.83,136.38,119.05Z"/><path class="cls-1" d="M187.09,64.28a2.3,2.3,0,0,1,1.77,1.83c.06,1-.56,1.27-1.4,1.25s-1.57-.48-1.58-1.49A1.54,1.54,0,0,1,187.09,64.28Z"/><path class="cls-1" d="M13.4,65.93a1.57,1.57,0,0,1-1.76,1.44c-.83,0-1.25-.39-1.21-1.23s1-2,1.71-1.83S13.31,65.15,13.4,65.93Z"/><path class="cls-1" d="M15.31,61.61a1.51,1.51,0,0,1-1.61,1.23A1.45,1.45,0,0,1,12,61.41c0-.62,1-1.5,1.71-1.49A2.09,2.09,0,0,1,15.31,61.61Z"/><path class="cls-1" d="M50.37,113.17c-.77,0-1.44-.32-1.58-1.22-.1-.68,1-1.77,1.82-1.78s1.13.6,1.23,1.3A1.49,1.49,0,0,1,50.37,113.17Z"/><path class="cls-1" d="M148.44,110.18c.8,0,2,1,2,1.65-.05.9-.67,1.28-1.5,1.32a1.42,1.42,0,0,1-1.54-1.54C147.46,110.93,147.7,110.32,148.44,110.18Z"/><path class="cls-1" d="M119.59,123.82a1.54,1.54,0,0,1-1.63-1.58c.09-.82.57-1.49,1.4-1.44a1.57,1.57,0,0,1,1.51,1.63A1.25,1.25,0,0,1,119.59,123.82Z"/><path class="cls-1" d="M63,119a1.67,1.67,0,0,1-1.6-1.22c-.12-.54,1.14-1.8,1.83-1.78s1.14.59,1.26,1.3A1.53,1.53,0,0,1,63,119Z"/><path class="cls-1" d="M176,48.34l.83,1.3.07,0c-.88.52-1-.34-1.34-.76C175.72,48.68,175.86,48.51,176,48.34Z"/><path class="cls-1" d="M17.48,68.42a.8.8,0,0,0,.05-.21s-.09,0-.14-.06.07.22.11.33S17.48,68.42,17.48,68.42Z"/><path class="cls-1" d="M19.14,67.25c-.13,0-.35-.08-.38-.16s0-.32.13-.22a1.58,1.58,0,0,1,.19.44Z"/><path class="cls-1" d="M176.84,49.64a.93.93,0,0,1,.28,1.2l0-.07c-.25-.35-.93-.6-.26-1.16Z"/><path class="cls-1" d="M21.5,47.35l-.16.3c-.05-.06-.15-.12-.14-.16a1.73,1.73,0,0,1,.14-.31Z"/><polygon class="cls-1" points="20.75 48.37 20.88 48.31 20.85 48.46 20.75 48.37"/><path class="cls-1" d="M175.57,48.84c-.18-.21-.63-.35-.3-.72s.54,0,.74.22C175.86,48.51,175.72,48.68,175.57,48.84Z"/><path class="cls-1" d="M21.79,51.3l0-.37a.32.32,0,0,1,0,.14,2.25,2.25,0,0,1-.08.24Z"/><path class="cls-1" d="M177.12,50.84l.44,0c-.18.47-.25,0-.38,0Z"/><path class="cls-1" d="M21.73,51.31l-.14,0,.19,0Z"/><path class="cls-1" d="M180.18,67.53l-.08.16-.22-.17.15-.17Z"/><path class="cls-1" d="M179.09,68.64c.16-.2.25-.62.61-.34s0,.52-.07.77Z"/><path class="cls-1" d="M134.12,58.73c.6,8.13-3,14.67-8,20.59a40,40,0,0,1-20,13,24,24,0,0,1-15.08-.57A41.56,41.56,0,0,1,67.42,70.76a23.3,23.3,0,0,1-2.31-9.71c-.35-7.09.74-14,4.58-20,7.74-12.12,18.7-18.25,33.41-17.21,12.26.87,28.08,11.9,30.4,28.21C133.82,54.26,134,56.5,134.12,58.73ZM99.84,82.62a17.14,17.14,0,0,0,6.29-1c6.35-2.38,11.13-6.66,15-12.14,2.64-3.74,3.37-8,3.63-12.35a19.57,19.57,0,0,0-4.29-13.38c-5.56-7.13-12.65-11.4-22-11.18-4.86.12-9.11,2-13.06,4.7-13,8.73-14.22,24.4-5.27,35a32.62,32.62,0,0,0,3.32,3.43C88.06,79.7,93.09,82.72,99.84,82.62Z"/><path class="cls-2" d="M100.61,106.94c-20.85-.24-39.3-5.49-55.81-16.85a91.28,91.28,0,0,1-25-24.88,17.61,17.61,0,0,0-1.35-2.11c-1.38-1.56-.89-2.94.07-4.51a71,71,0,0,1,13.71-16c13.83-12.28,29.86-20.57,47.45-26a76.78,76.78,0,0,1,15.57-2.76c9.43-.88,18.55.83,27.41,3.75A124.81,124.81,0,0,1,159.2,36.31c8.07,6.08,15.5,12.81,21,21.47,1.42,2.23,1.65,3.91.09,6.25A96.73,96.73,0,0,1,159,86.7a94.83,94.83,0,0,1-39.36,18.13A109.83,109.83,0,0,1,100.61,106.94Zm-1-5.62c2.17,0,4.36.12,6.53,0a101.57,101.57,0,0,0,19.26-3.45c6.72-1.77,13.38-3.77,19.51-7.16a118.43,118.43,0,0,0,23.88-17.93,61.07,61.07,0,0,0,7.57-8.4,2.55,2.55,0,0,0,.25-3.2,51.44,51.44,0,0,0-2.89-4.41,97.64,97.64,0,0,0-11.59-12.21A112.3,112.3,0,0,0,113.94,18a55,55,0,0,0-22-1.29c-12.16,1.78-23.37,6.4-34,12.44A123.27,123.27,0,0,0,31.49,49.88,56.07,56.07,0,0,0,23,60.46,3.38,3.38,0,0,0,23.3,65a85.9,85.9,0,0,0,8.93,9.55,143.29,143.29,0,0,0,16.66,13,72.59,72.59,0,0,0,21.52,9.44C80,99.55,89.6,101.7,99.6,101.32Z"/><path class="cls-2" d="M17.49,68.48c1.46,1.84,2,4.15,3.12,6.16C25.42,83.13,32.16,89.82,40,95.52A99.18,99.18,0,0,0,82.87,113.6,98.64,98.64,0,0,0,131,110c13.7-4.6,26.05-11.46,36.6-21.4A53.09,53.09,0,0,0,180.55,70.5c.29-.68.65-1.34,1-2a25.64,25.64,0,0,1-3.09,9.71,69.77,69.77,0,0,1-16.12,20.08c-11.59,10.36-25.2,16.63-40.17,20.29a91.58,91.58,0,0,1-23.21,2.24c-5.36-.07-10.72,0-16-1-15.82-3-30.43-8.68-43-18.93-7.73-6.3-14.43-13.54-19-22.51a32.31,32.31,0,0,1-3.38-9.94Z"/><path class="cls-2" d="M178.44,48.29C159.24,20.85,132.75,8,100.3,6.32,67.78,7.46,41.19,20.12,21.77,46.75c-.47-.66,0-1.13.25-1.62,4.56-10.52,11.9-18.77,21-25.59C57.68,8.46,74.37,2.91,92.64,1.73c1.08-.07,2.16-.21,3.24-.33,6.4-.68,12.71.37,19,1.18a87.09,87.09,0,0,1,27.29,8.31c12.91,6.31,23.76,15.05,31.47,27.35A49.52,49.52,0,0,1,178.44,48.29Z"/><path class="cls-2" d="M197.83,81c0,3.35-2.76,6.34-5.87,6.37-3.44,0-6.33-3.23-6.26-7.11.05-3.09,2.45-5.89,5.05-5.9A6.86,6.86,0,0,1,197.83,81Z"/><path class="cls-2" d="M13.55,80.43c-.05,3.77-2.9,6.94-6.23,6.92A6.36,6.36,0,0,1,1.41,81a6.79,6.79,0,0,1,7-6.68C11.13,74.34,13.59,77.26,13.55,80.43Z"/><path class="cls-2" d="M99.4,128.06a4.52,4.52,0,0,1,4.18,4.48,5.65,5.65,0,0,1-2.92,4.66,2.24,2.24,0,0,1-1.45.25c-1.6-.33-3.4-2.58-3.54-4.48a4.81,4.81,0,0,1,2.76-4.66C98.82,128.18,99.23,128.1,99.4,128.06Z"/><path class="cls-2" d="M39.24,109.18a3.79,3.79,0,0,1-4,3.86,4.4,4.4,0,0,1-4-4.11c0-1.94,2.28-4.44,4.08-4.46C37.33,104.45,39.29,106.77,39.24,109.18Z"/><path class="cls-2" d="M163.75,113a3.75,3.75,0,0,1-3.74-4.15c.06-2.25,2.07-4.5,4-4.45,1.74,0,4.11,2.67,4.09,4.53A4.46,4.46,0,0,1,163.75,113Z"/><path class="cls-2" d="M27.06,97c.06,2-2.08,4.42-3.93,4.53A4.28,4.28,0,0,1,19,97.35,4.4,4.4,0,0,1,23.24,93C24.86,92.87,27,95.1,27.06,97Z"/><path class="cls-2" d="M172.19,97.13c0-1.85,2-4.16,3.62-4.15,2.16,0,4.4,2,4.51,3.94a4.45,4.45,0,0,1-4,4.57C174.42,101.51,172.23,99.18,172.19,97.13Z"/><path class="cls-2" d="M137,128.51a3.58,3.58,0,0,1-3.46-3.85c0-1.91,1.73-4,3.18-3.94,2.44.1,4.76,2,4.64,3.73A4.51,4.51,0,0,1,137,128.51Z"/><path class="cls-2" d="M62,128.5a4.48,4.48,0,0,1-4.12-4.27c0-1.69,2.8-3.69,4.84-3.52,1.43.12,3.08,2.42,3,4.17A3.74,3.74,0,0,1,62,128.5Z"/><path class="cls-2" d="M120.21,133.06c-1.92-.06-3.43-1.92-3.41-4.2,0-2,1.63-3.84,3.25-3.77,1.92.08,3.94,2.5,3.81,4.57A3.76,3.76,0,0,1,120.21,133.06Z"/><path class="cls-2" d="M147.15,118.11c0-1.7,1.88-3.94,3.3-3.88,1.84.08,4.09,2.13,4.13,3.77a4.22,4.22,0,0,1-4,4.06A4,4,0,0,1,147.15,118.11Z"/><path class="cls-2" d="M78.85,133a3.58,3.58,0,0,1-3.44-3.8c.1-2.13,2.07-4.2,3.93-4.13,1.64.06,3.15,2,3.11,3.92A3.84,3.84,0,0,1,78.85,133Z"/><path class="cls-2" d="M52,118.18c0,2-1.72,3.9-3.49,3.9a4.15,4.15,0,0,1-3.85-4.15c0-1.63,2.35-3.68,4.14-3.7C50.24,114.22,52.06,116.46,52,118.18Z"/><path class="cls-2" d="M99.12,81c-3.48.16-6.89-1.22-10.1-3.11-5.35-3.16-9.66-7.39-11.7-13.34-2.74-8-1.42-15.4,4.31-21.77a27.81,27.81,0,0,1,11-7.74,19.24,19.24,0,0,1,14.48.19,26.48,26.48,0,0,1,13.54,11.87c4.12,7.54,3.44,15.09-1.16,22.13a26.33,26.33,0,0,1-16,11.4A18.62,18.62,0,0,1,99.12,81Zm.38-8.53c8.07,1.16,16.53-5.54,16.33-16.17a16.21,16.21,0,0,0-32.42.26C83.3,67,91.7,73.5,99.5,72.46Z"/><path class="cls-3" d="M183.57,59.09c.84.27,1.3-.29,1.89-.29,2.24,0,3.49,1.42,2.85,3.54-.28.93-.15,1.33.56,1.82,1.48,1,.57,2.61.92,3.79S192,69.52,192,71.2a17.18,17.18,0,0,1-.27,1.92,7.33,7.33,0,0,1,5.69,3.12,7.6,7.6,0,0,1,1.71,4.63c0,3.14-2.22,6.6-5,7.51a7.2,7.2,0,0,1-8.58-3c-2.44-3.7-2.07-7.17,1.14-10.94-2-2.4-2-2.89-.18-5.9a2.87,2.87,0,0,1-1.69-3.65c.19-.71-.45-.73-1-1.27-.51,9.26-4.21,16.92-9.63,24.06,1.92.61,3.64,1.27,3,3.73-.23.85.64.79,1.11,1,3.51,1.6,4.51,4.79,2.47,8-1.64,2.59-4.53,3.37-6.95,1.88-2.93-1.81-3.85-5.14-2.14-7.79,1.11-1.71,1.11-1.71-.2-3.3a74.33,74.33,0,0,1-7.39,7.48c1.59,1.08,2.33,2.47,1.54,4.25-.31.7.1.88.52,1.13a6.68,6.68,0,0,1,2.3,1.9,5.61,5.61,0,0,1-8.36,7.25c-1.8-1.59-2.1-5-.61-7.17a6.72,6.72,0,0,1,.63-.78c1.19-1.35,1.2-1.34,0-3.11-3.19,2.4-6.46,4.69-10.13,7,1.34.84,2,1.9,1.67,3.34-.26,1,.59,1,1.17,1.23a4.64,4.64,0,0,1,3.17,4.42,5.72,5.72,0,0,1-3.59,5,4.63,4.63,0,0,1-5.46-1.32,5.46,5.46,0,0,1-.67-6.11,12.42,12.42,0,0,1,1.13-1.44,6.87,6.87,0,0,1-1.53-2.82l-8.09,3.75c1.28,1.32,2.13,2.71.62,4.22.36.73,1.06.6,1.57.83,2.61,1.19,3.44,3.65,2.08,6.27-1.62,3.12-4.56,4.35-7.25,3a5.2,5.2,0,0,1-1.85-7.74,7.4,7.4,0,0,0,.54-3.63,11.33,11.33,0,0,1-.17-1.31c-3.94,1.13-7.73,2.45-11.78,3.31.1,1.15.72,2.21.22,3.38-.4.94.6.92,1.08,1.24a5.28,5.28,0,0,1,1,8.07,4.88,4.88,0,0,1-5.32,1.18,5.48,5.48,0,0,1-3-5.13c0-.74.08-1.78.54-2.15,2.09-1.63.88-3.46.51-5.42a106.93,106.93,0,0,1-14.1.72c.57,1.78,1,3.37-.3,4.86-.45.53.38.8.67,1.13,2.1,2.38,2.6,5,1.37,7.39-1.15,2.21-3.35,3.52-5.24,3.11a5.9,5.9,0,0,1-4.43-4.92,6.71,6.71,0,0,1,2.92-6.45c-1.65-1.46-1.42-3.15-.55-5.07a95.59,95.59,0,0,1-14.08-.85c-.51.87-.22,2.05-1,2.92-.57.65.33,1,.66,1.37a5.44,5.44,0,0,1,.71,5.91,4.53,4.53,0,0,1-5.54,2.78A5,5,0,0,1,74,129c.28-1.76.87-3.45,2.72-4.23.77-.33,1.06-.73.65-1.52-.53-1,.1-1.92.5-2.92C73.74,119.44,70,118.09,66,117a4.32,4.32,0,0,1-.27,1,3,3,0,0,0,.4,3.83A5.05,5.05,0,0,1,63.28,130a4.84,4.84,0,0,1-5-1.74C57,126.74,56,125,56.79,122.79c.63-1.7,2-2.39,3.71-2.87-.28-1.59-1.2-3.33,1.19-4.51l-8.07-3.78c-.76.24-.48,1.07-.87,1.43-1.06,1-.59,1.64.09,2.62,1.39,2,.74,5.22-1.18,6.85a5.28,5.28,0,0,1-7.53-7,3.93,3.93,0,0,1,.47-.59c.8-.79,2-.92,2.81-1.57s-.34-1.91.37-2.79c.36-.45.75-.87,1.24-1.43-1.61-1.09-3.34-2.23-5-3.41s-3.25-2.32-4.87-3.48c-1.15,1.7-1.15,1.7.11,3.12,3,3.3,1.57,8.19-2.58,9.15a5.66,5.66,0,0,1-6.14-3.33,5,5,0,0,1,1.65-6.45c1-.68,1.93-1.09,1.21-2.66-.47-1,0-1.58,1.62-3.21l-7.57-6.94c-1.05.89-1.05.89,0,2.37a5.29,5.29,0,0,1-.89,7.23c-2.27,2.06-4.81,2.11-7,.14a5.77,5.77,0,0,1-1.05-7.52C19.34,92.8,20.85,92.66,22,92c-.05-2.38-.63-3.1,3-4.21-5.28-7.15-9.19-14.82-9.54-23.89-.73.24-1.27.4-1,1.24a2.84,2.84,0,0,1-1.72,3.47c1.78,3.08,1.76,3.41-.23,5.94a7.92,7.92,0,0,1,2.7,5.92,9.21,9.21,0,0,1-1.82,5.4,7.29,7.29,0,0,1-8.31,2.56c-2.68-.91-5.24-4.66-5-7.5A8.58,8.58,0,0,1,7.43,73c-.37-1.86-.37-3.68,1.72-4.63.53-.24.36-.6.32-1-.11-1.36-.68-2.88,1.23-3.59.43-.16.35-.74.22-1.12-.38-1.08-.68-2.16.45-3a3.14,3.14,0,0,1,3.52-.53,2.78,2.78,0,0,0,.64.09c1-3.67,2.22-7.32,3.54-10.93,5.7-15.51,16.35-26.78,30.26-35.12A92.13,92.13,0,0,1,93.44.15c9.76-.42,19.44,0,29,2.16,19,4.41,35.39,13.2,47.92,28.48A54.13,54.13,0,0,1,177.84,43,87.68,87.68,0,0,1,183.57,59.09ZM21.73,51.31a2.25,2.25,0,0,0,.08-.24.32.32,0,0,0,0-.14,2.35,2.35,0,0,1-.05.37l-.18,0Zm155.45-.54c.13,0,.2.51.38,0l-.44,0a.93.93,0,0,0-.28-1.2l-.83-1.3c-.2-.26-.43-.56-.74-.22s.12.51.3.72c.36.42.46,1.28,1.33.77C176.24,50.17,176.92,50.42,177.18,50.77ZM19.08,67.31a1.58,1.58,0,0,0-.19-.44c-.08-.1-.2,0-.13.22s.25.11.38.16c.21,2.41,1.52,4.39,2.62,6.42,5,9.21,12.39,16.19,20.93,22a103.52,103.52,0,0,0,30.16,14.05,95.92,95.92,0,0,0,29.31,3.75,97.12,97.12,0,0,0,28.59-5.11A99.26,99.26,0,0,0,163,90.81c7.21-6,13.06-13,16.64-21.74.09-.25.39-.53.07-.77s-.45.14-.61.34c-2.13,2.58-4.14,5.27-6.41,7.72-13.3,14.37-29.22,24.43-48.3,29.3a104,104,0,0,1-33.17,2.64A95.52,95.52,0,0,1,59,100.13c-11.09-4.89-20.67-12-29.32-20.44C25.77,75.88,22.54,71.5,19.08,67.31ZM17.5,68.47c0-.1-.07-.21-.11-.32s.14,0,.14.06a.8.8,0,0,1-.05.21,32.31,32.31,0,0,0,3.38,9.94c4.6,9,11.3,16.21,19,22.51,12.58,10.25,27.19,15.95,43,18.93,5.31,1,10.67,1,16,1a91.58,91.58,0,0,0,23.21-2.24c15-3.66,28.58-9.93,40.17-20.29a69.77,69.77,0,0,0,16.12-20.08,25.64,25.64,0,0,0,3.09-9.71c-.32.64-.68,1.3-1,2a53.09,53.09,0,0,1-12.94,18.06c-10.55,9.94-22.9,16.8-36.6,21.4a98.64,98.64,0,0,1-48.14,3.64A99.18,99.18,0,0,1,40,95.52c-7.79-5.7-14.53-12.39-19.34-20.88C19.47,72.63,19,70.32,17.5,68.47Zm83.11,38.47a109.83,109.83,0,0,0,19.07-2.11A94.83,94.83,0,0,0,159,86.7,96.73,96.73,0,0,0,180.27,64c1.56-2.34,1.33-4-.09-6.25-5.48-8.66-12.91-15.39-21-21.47a124.81,124.81,0,0,0-36.52-18.69c-8.86-2.92-18-4.63-27.41-3.75A76.78,76.78,0,0,0,79.7,16.63c-17.59,5.42-33.62,13.71-47.45,26a71,71,0,0,0-13.71,16c-1,1.57-1.45,2.95-.07,4.51a17.61,17.61,0,0,1,1.35,2.11,91.28,91.28,0,0,0,25,24.88C61.31,101.45,79.76,106.7,100.61,106.94Zm77.83-58.65a49.52,49.52,0,0,0-4.81-10c-7.71-12.3-18.56-21-31.47-27.35a87.09,87.09,0,0,0-27.29-8.31c-6.28-.81-12.59-1.86-19-1.18-1.08.12-2.16.26-3.24.33C74.37,2.91,57.68,8.46,43,19.54c-9.06,6.82-16.4,15.07-21,25.59-.21.49-.72,1-.25,1.62,19.42-26.63,46-39.29,78.53-40.43C132.75,8,159.24,20.85,178.44,48.29Zm-3.3-.36c.4-.41.22-.65.1-.83-4.59-6.67-9.76-12.86-16.19-17.81-14.42-11.08-30.5-18.41-48.7-20.65-3.66-.45-7.35-1.16-11-1A122.34,122.34,0,0,0,85.11,9.19a93.48,93.48,0,0,0-26.65,8.69C43.73,24.94,31.68,35,22.85,48.81c-.25.4-.76.76-.49,1.57.54-.57.95-1,1.33-1.42A96,96,0,0,1,39.5,34.62,127.46,127.46,0,0,1,79.43,14.93a71.34,71.34,0,0,1,36.55-1,107.46,107.46,0,0,1,19,6.55A117.58,117.58,0,0,1,173.4,46.58C173.9,47.09,174.24,47.87,175.14,47.93Zm22.69,33a6.86,6.86,0,0,0-7.08-6.64c-2.6,0-5,2.81-5.05,5.9-.07,3.88,2.82,7.16,6.26,7.11C195.07,87.31,197.82,84.32,197.83,81ZM13.55,80.43c0-3.17-2.42-6.09-5.13-6.09a6.79,6.79,0,0,0-7,6.68,6.36,6.36,0,0,0,5.91,6.33C10.65,87.37,13.5,84.2,13.55,80.43ZM99.4,128.06c-.17,0-.58.12-1,.25A4.81,4.81,0,0,0,95.67,133c.14,1.9,1.94,4.15,3.54,4.48a2.24,2.24,0,0,0,1.45-.25,5.65,5.65,0,0,0,2.92-4.66A4.52,4.52,0,0,0,99.4,128.06ZM39.24,109.18c0-2.41-1.91-4.73-4-4.71-1.8,0-4.08,2.52-4.08,4.46a4.4,4.4,0,0,0,4,4.11A3.79,3.79,0,0,0,39.24,109.18ZM163.75,113a4.46,4.46,0,0,0,4.32-4.07c0-1.86-2.35-4.48-4.09-4.53-1.9,0-3.91,2.2-4,4.45A3.75,3.75,0,0,0,163.75,113ZM27.06,97c0-1.86-2.2-4.09-3.82-4A4.4,4.4,0,0,0,19,97.35a4.28,4.28,0,0,0,4.17,4.14C25,101.38,27.12,98.92,27.06,97Zm145.13.17c0,2.05,2.23,4.38,4.09,4.36a4.45,4.45,0,0,0,4-4.57C180.21,95,178,93,175.81,93,174.16,93,172.15,95.28,172.19,97.13ZM137,128.51a4.51,4.51,0,0,0,4.36-4.06c.12-1.76-2.2-3.63-4.64-3.73-1.45-.07-3.14,2-3.18,3.94A3.58,3.58,0,0,0,137,128.51ZM62,128.5a3.74,3.74,0,0,0,3.72-3.62c.08-1.75-1.57-4-3-4.17-2-.17-4.8,1.83-4.84,3.52A4.48,4.48,0,0,0,62,128.5Zm58.17,4.56a3.76,3.76,0,0,0,3.65-3.4c.13-2.07-1.89-4.49-3.81-4.57-1.62-.07-3.23,1.8-3.25,3.77C116.78,131.14,118.29,133,120.21,133.06Zm26.94-15a4,4,0,0,0,3.46,4,4.22,4.22,0,0,0,4-4.06c0-1.64-2.29-3.69-4.13-3.77C149,114.17,147.13,116.41,147.15,118.11ZM78.85,133a3.84,3.84,0,0,0,3.6-4c0-2-1.47-3.86-3.11-3.92-1.86-.07-3.83,2-3.93,4.13A3.58,3.58,0,0,0,78.85,133ZM52,118.18c0-1.72-1.8-4-3.2-4-1.79,0-4.09,2.07-4.14,3.7a4.15,4.15,0,0,0,3.85,4.15C50.32,122.08,52,120.19,52,118.18Zm49.7,6.42a2.27,2.27,0,0,0-2-2.42,2.37,2.37,0,0,0-2.31,2.4,2.53,2.53,0,0,0,2,2.19A2.34,2.34,0,0,0,101.74,124.6Zm86.67-55.43c-.79,0-1.93,1.32-1.94,2.28a1.91,1.91,0,0,0,2,1.82,2.51,2.51,0,0,0,2.3-1.89C190.81,70.54,189.39,69.18,188.41,69.17Zm-177.67,0c-1,0-2.34,1.44-2.23,2.28a2.44,2.44,0,0,0,2.32,1.85,1.81,1.81,0,0,0,1.85-1.87C12.64,70.37,11.55,69.1,10.74,69.14Zm26.89,32.32c-.06-.75-1.1-1.82-1.65-1.6a1.94,1.94,0,0,0-1.39,1.89,1.25,1.25,0,0,0,1.46,1.32A1.59,1.59,0,0,0,37.63,101.46ZM185.47,59.92a1.9,1.9,0,0,0-1.54,1.7c.1.92.8,1.18,1.6,1.22a1.46,1.46,0,0,0,1.67-1.43C187.27,60.81,186.17,59.91,185.47,59.92Zm-11.08,32a1.83,1.83,0,0,0,1.66-1.3c.09-.76-1.08-1.58-2.21-1.61-.78,0-1,.46-1.08,1.09A1.66,1.66,0,0,0,174.39,91.9Zm-11.46,8a2,2,0,0,0-1.28,1.44,1.51,1.51,0,0,0,1.37,1.76c.82.07,1.5-.19,1.65-1.14A2.07,2.07,0,0,0,162.93,99.86ZM78.32,122.35c.11,1,.53,1.49,1.45,1.48a1.47,1.47,0,0,0,1.45-1.64c-.08-.83-.58-1.49-1.41-1.41A1.64,1.64,0,0,0,78.32,122.35ZM26.52,90.06c-.2-.55-.37-1.23-1.29-1s-1.88.36-2,1.51c-.08.72,1,1.49,1.78,1.37A1.74,1.74,0,0,0,26.52,90.06Zm109.86,29c.66-.22,1.41-.46,1.48-1.38,0-.58-1.36-1.7-2-1.61s-1.08.77-1.19,1.42S135.53,119.07,136.38,119.05Zm50.71-54.77a1.54,1.54,0,0,0-1.21,1.59c0,1,.63,1.46,1.58,1.49s1.46-.25,1.4-1.25A2.3,2.3,0,0,0,187.09,64.28ZM13.4,65.93c-.09-.78-.38-1.47-1.26-1.62s-1.67.94-1.71,1.83.38,1.23,1.21,1.23A1.57,1.57,0,0,0,13.4,65.93Zm1.92-4.32a2.12,2.12,0,0,0-1.57-1.69c-.71,0-1.76.87-1.71,1.49a1.45,1.45,0,0,0,1.66,1.43A1.53,1.53,0,0,0,15.32,61.61Zm35.05,51.56a1.49,1.49,0,0,0,1.47-1.7c-.1-.7-.4-1.32-1.23-1.3s-1.92,1.1-1.82,1.78C48.93,112.85,49.6,113.13,50.37,113.17Zm98.07-3c-.74.14-1,.75-1,1.43a1.42,1.42,0,0,0,1.54,1.54c.83,0,1.45-.42,1.5-1.32C150.47,111.16,149.24,110.15,148.44,110.18Zm-28.85,13.64a1.25,1.25,0,0,0,1.28-1.39,1.57,1.57,0,0,0-1.51-1.63c-.83,0-1.31.62-1.4,1.44A1.54,1.54,0,0,0,119.59,123.82ZM63,119a1.53,1.53,0,0,0,1.49-1.7c-.12-.71-.47-1.28-1.26-1.3s-2,1.24-1.83,1.78A1.67,1.67,0,0,0,63,119ZM21.5,47.35l-.16-.17a1.73,1.73,0,0,0-.14.31s.09.1.14.16Zm-.75,1,.1.09,0-.15ZM180.18,67.53l-.15-.18-.15.17.22.17Z"/><path class="cls-3" d="M99.6,101.32c-10,.38-19.64-1.77-29.19-4.41a72.59,72.59,0,0,1-21.52-9.44,143.29,143.29,0,0,1-16.66-13A85.9,85.9,0,0,1,23.3,65a3.38,3.38,0,0,1-.3-4.49,56.07,56.07,0,0,1,8.49-10.58A123.27,123.27,0,0,1,58,29.17c10.65-6,21.86-10.66,34-12.44a55,55,0,0,1,22,1.29,112.3,112.3,0,0,1,48.18,26.52,97.64,97.64,0,0,1,11.59,12.21,51.44,51.44,0,0,1,2.89,4.41,2.55,2.55,0,0,1-.25,3.2,61.07,61.07,0,0,1-7.57,8.4A118.43,118.43,0,0,1,144.9,90.69c-6.13,3.39-12.79,5.39-19.51,7.16a101.57,101.57,0,0,1-19.26,3.45C104,101.44,101.77,101.32,99.6,101.32Zm-.73-1.41a89.65,89.65,0,0,0,21-2.42c7.92-1.83,15.79-3.83,23.11-7.52a93.63,93.63,0,0,0,14.3-9.33A112.19,112.19,0,0,0,174.9,64.12a2,2,0,0,0,.18-2.79,76.51,76.51,0,0,0-13.83-15.89A114.07,114.07,0,0,0,118.7,20.88a60.12,60.12,0,0,0-36.32-.56A112.77,112.77,0,0,0,41.72,42.19c-6.71,5.63-13,11.63-17.62,19.2a1.93,1.93,0,0,0,.25,2.76,118.32,118.32,0,0,0,27,23.15c6,3.88,12.75,6.29,19.66,8.14C80.38,97.94,89.78,100,98.87,99.91Z"/><path class="cls-3" d="M103.77,22.06C114.31,21.38,132,33.85,135,51.4c2.2,12.62-1.38,23.17-10.41,32a41.83,41.83,0,0,1-17.88,10.35,24.57,24.57,0,0,1-13.91.09c-11.66-3.4-20.51-10.37-26.14-21.24a29.26,29.26,0,0,1-3.18-14.33c.13-6.29,1.36-12.37,4.72-17.77C75.42,28.94,85.73,22.6,103.77,22.06Zm30.35,36.67c-.13-2.23-.3-4.47-.62-6.72-2.32-16.31-18.14-27.34-30.4-28.21-14.71-1-25.67,5.09-33.41,17.21-3.84,6-4.93,13-4.58,20a23.3,23.3,0,0,0,2.31,9.71A41.56,41.56,0,0,0,91.13,91.7a24,24,0,0,0,15.08.57,40,40,0,0,0,20-13C131.12,73.4,134.72,66.86,134.12,58.73Z"/><path class="cls-3" d="M99.84,82.62c-6.75.1-11.78-2.92-16.34-7a32.62,32.62,0,0,1-3.32-3.43c-9-10.59-7.71-26.26,5.27-35,4-2.66,8.2-4.58,13.06-4.7,9.31-.22,16.4,4.05,22,11.18a19.57,19.57,0,0,1,4.29,13.38c-.26,4.34-1,8.61-3.63,12.35-3.87,5.48-8.65,9.76-15,12.14A17.14,17.14,0,0,1,99.84,82.62ZM99.12,81a18.62,18.62,0,0,0,4.35-.37,26.33,26.33,0,0,0,16-11.4c4.6-7,5.28-14.59,1.16-22.13A26.48,26.48,0,0,0,107.1,35.22,19.24,19.24,0,0,0,92.62,35a27.81,27.81,0,0,0-11,7.74c-5.73,6.37-7,13.79-4.31,21.77,2,5.95,6.35,10.18,11.7,13.34C92.23,79.77,95.64,81.15,99.12,81Z"/><path class="cls-3" d="M99.5,72.46c-7.8,1-16.2-5.46-16.09-15.91a16.21,16.21,0,0,1,32.42-.26C116,66.92,107.57,73.62,99.5,72.46Z"/><path class="cls-4" d="M98.87,99.91c-9.09.07-18.49-2-27.82-4.47-6.91-1.85-13.62-4.26-19.66-8.14a118.32,118.32,0,0,1-27-23.15,1.93,1.93,0,0,1-.25-2.76C28.71,53.82,35,47.82,41.72,42.19A112.77,112.77,0,0,1,82.38,20.32a60.12,60.12,0,0,1,36.32.56,114.07,114.07,0,0,1,42.55,24.56,76.51,76.51,0,0,1,13.83,15.89,2,2,0,0,1-.18,2.79,112.19,112.19,0,0,1-17.57,16.52A93.63,93.63,0,0,1,143,90c-7.32,3.69-15.19,5.69-23.11,7.52A89.65,89.65,0,0,1,98.87,99.91Zm4.9-77.85c-18,.54-28.35,6.88-35.54,18.46-3.36,5.4-4.59,11.48-4.72,17.77a29.26,29.26,0,0,0,3.18,14.33c5.63,10.87,14.48,17.84,26.14,21.24a24.57,24.57,0,0,0,13.91-.09,41.83,41.83,0,0,0,17.88-10.35c9-8.85,12.61-19.4,10.41-32C132,33.85,114.31,21.38,103.77,22.06Z"/><path class="cls-4" d="M104.13,46.33a4.13,4.13,0,0,1,4.27,4.28c0,2.65-1.58,4.21-4.47,4.34-2.28.1-3.82-1.57-3.92-4.25A4,4,0,0,1,104.13,46.33Z"/><path class="cls-4" d="M105.64,60a2.76,2.76,0,1,1,5.52-.25,3,3,0,0,1-2.85,2.93A2.56,2.56,0,0,1,105.64,60Z"/></g></g></svg>