<svg xmlns="http://www.w3.org/2000/svg" viewBox="0 0 165.54 166.98"><defs><style>.cls-1{fill:#c2c853;}.cls-2{fill:#222221;}.cls-3{fill:#848dec;}.cls-4{fill:#faf9ea;}</style></defs><g id="Capa_2" data-name="Capa 2"><g id="eye"><g id="center"><g id="green"><circle class="cls-1" cx="82.41" cy="83.48" r="81.03"/><path class="cls-2" d="M92.37.06c24.19-1.56,64.72,27.05,71.73,67.33,5,28.94-3.17,53.13-23.88,73.44a95.89,95.89,0,0,1-41,23.74,56.28,56.28,0,0,1-31.89.21c-26.76-7.8-47.06-23.8-60-48.73A67.26,67.26,0,0,1,0,83.19C.32,68.76,3.15,54.8,10.84,42.41,27.34,15.86,51,1.3,92.37.06ZM162,84.2c-.31-5.12-.68-10.26-1.42-15.42C155.26,31.37,119,6.05,90.85,4.06,57.1,1.68,32,15.73,14.21,43.54,5.4,57.35,2.89,73.25,3.69,89.51c.38,7.68,1.69,15.2,5.3,22.28q17.76,34.81,54.39,48A55,55,0,0,0,98,161.14a91.9,91.9,0,0,0,45.79-29.71C155.13,117.85,163.38,102.85,162,84.2Z"/></g><g id="lila"><circle class="cls-3" cx="82.95" cy="81.32" r="54.62"/><path class="cls-2" d="M83.36,139c-15.48.24-27-6.69-37.47-15.94a76.52,76.52,0,0,1-7.62-7.87C17.74,90.86,20.58,54.93,50.35,34.9c9.08-6.11,18.81-10.52,30-10.78,21.37-.52,37.63,9.29,50.37,25.65a44.74,44.74,0,0,1,9.86,30.67c-.59,10-2.29,19.77-8.34,28.35-8.88,12.57-19.83,22.37-34.41,27.85A39.21,39.21,0,0,1,83.36,139Zm-1.64-3.73c3.89-.06,7-.07,10-.84a60.43,60.43,0,0,0,36.71-26.15C139,92.1,140.54,74.78,131.09,57.5c-7-12.72-17.69-21.74-31.08-27.25a44.14,44.14,0,0,0-33.2-.42c-10,3.72-18.19,10-25.21,17.74C28.45,62.2,25.43,79.2,31.71,97.52c4.68,13.64,14.57,23.35,26.84,30.59C65.91,132.47,73.73,135.62,81.72,135.25Z"/></g><g id="iris"><path id="black" class="cls-2" d="M82.58,115.68c-17.89,2.39-37.16-12.52-36.9-36.48a37.2,37.2,0,0,1,74.38-.62C120.51,103,101.11,118.35,82.58,115.68Z"/><path class="cls-4" d="M93.22,55.74c5.59-.1,9.71,4,9.78,9.83.08,6.06-3.63,9.66-10.26,10-5.22.23-8.75-3.6-9-9.76A9.24,9.24,0,0,1,93.22,55.74Z"/><path class="cls-4" d="M96.68,87a6.33,6.33,0,1,1,12.65-.56,6.76,6.76,0,0,1-6.52,6.71A5.87,5.87,0,0,1,96.68,87Z"/></g></g></g></g></svg>